<svg xmlns="http://www.w3.org/2000/svg" xmlns:xlink="http://www.w3.org/1999/xlink" viewBox="0 0 1400 1080" width="1400" height="1080" style="width: 100%; height: 100%; transform: translate3d(0px, 0px, 0px);" preserveAspectRatio="xMidYMid slice"><defs><clipPath id="__lottie_element_2"><rect width="1400" height="1080" x="0" y="0"></rect></clipPath><linearGradient id="__lottie_element_10" spreadMethod="pad" gradientUnits="userSpaceOnUse" x1="-183" y1="-289" x2="-95" y2="-319"><stop offset="0%" stop-color="rgb(247,171,48)"></stop><stop offset="50%" stop-color="rgb(238,105,63)"></stop><stop offset="100%" stop-color="rgb(229,39,78)"></stop></linearGradient><linearGradient id="__lottie_element_23" spreadMethod="pad" gradientUnits="userSpaceOnUse" x1="26" y1="-245" x2="25" y2="-150"><stop offset="0%" stop-color="rgb(229,39,78)"></stop><stop offset="50%" stop-color="rgb(143,50,82)"></stop><stop offset="100%" stop-color="rgb(56,62,85)"></stop></linearGradient><linearGradient id="__lottie_element_30" spreadMethod="pad" gradientUnits="userSpaceOnUse" x1="-302" y1="-149" x2="-316" y2="-77"><stop offset="0%" stop-color="rgb(247,171,48)"></stop><stop offset="50%" stop-color="rgb(151,117,67)"></stop><stop offset="100%" stop-color="rgb(56,62,85)"></stop></linearGradient><linearGradient id="__lottie_element_43" spreadMethod="pad" gradientUnits="userSpaceOnUse" x1="-370" y1="-221" x2="-481" y2="-179"><stop offset="0%" stop-color="rgb(247,171,48)"></stop><stop offset="50%" stop-color="rgb(238,105,63)"></stop><stop offset="100%" stop-color="rgb(229,39,78)"></stop></linearGradient><linearGradient id="__lottie_element_50" spreadMethod="pad" gradientUnits="userSpaceOnUse" x1="331" y1="-151" x2="351" y2="-69"><stop offset="0%" stop-color="rgb(229,39,78)"></stop><stop offset="50%" stop-color="rgb(238,105,63)"></stop><stop offset="100%" stop-color="rgb(247,171,48)"></stop></linearGradient><linearGradient id="__lottie_element_63" spreadMethod="pad" gradientUnits="userSpaceOnUse" x1="404" y1="-208" x2="509" y2="-170"><stop offset="0%" stop-color="rgb(229,39,78)"></stop><stop offset="50%" stop-color="rgb(143,50,82)"></stop><stop offset="100%" stop-color="rgb(56,62,85)"></stop></linearGradient><linearGradient id="__lottie_element_70" spreadMethod="pad" gradientUnits="userSpaceOnUse" x1="-129" y1="79" x2="-55" y2="20"><stop offset="0%" stop-color="rgb(229,39,78)"></stop><stop offset="50%" stop-color="rgb(143,50,82)"></stop><stop offset="100%" stop-color="rgb(56,62,85)"></stop></linearGradient><linearGradient id="__lottie_element_83" spreadMethod="pad" gradientUnits="userSpaceOnUse" x1="16" y1="185" x2="17" y2="61"><stop offset="0%" stop-color="rgb(247,171,48)"></stop><stop offset="50%" stop-color="rgb(151,117,67)"></stop><stop offset="100%" stop-color="rgb(56,62,85)"></stop></linearGradient><linearGradient id="__lottie_element_90" spreadMethod="pad" gradientUnits="userSpaceOnUse" x1="-511" y1="6" x2="-413" y2="5"><stop offset="0%" stop-color="rgb(229,39,78)"></stop><stop offset="50%" stop-color="rgb(143,50,82)"></stop><stop offset="100%" stop-color="rgb(56,62,85)"></stop></linearGradient><linearGradient id="__lottie_element_103" spreadMethod="pad" gradientUnits="userSpaceOnUse" x1="-470" y1="161" x2="-387" y2="66"><stop offset="0%" stop-color="rgb(247,171,48)"></stop><stop offset="50%" stop-color="rgb(151,117,67)"></stop><stop offset="100%" stop-color="rgb(56,62,85)"></stop></linearGradient><linearGradient id="__lottie_element_110" spreadMethod="pad" gradientUnits="userSpaceOnUse" x1="278" y1="366" x2="292" y2="291"><stop offset="0%" stop-color="rgb(229,39,78)"></stop><stop offset="50%" stop-color="rgb(143,50,82)"></stop><stop offset="100%" stop-color="rgb(56,62,85)"></stop></linearGradient><linearGradient id="__lottie_element_123" spreadMethod="pad" gradientUnits="userSpaceOnUse" x1="425" y1="341" x2="348" y2="266"><stop offset="0%" stop-color="rgb(247,171,48)"></stop><stop offset="50%" stop-color="rgb(151,117,67)"></stop><stop offset="100%" stop-color="rgb(56,62,85)"></stop></linearGradient></defs><g clip-path="url(#__lottie_element_2)"><g style="display: block;" transform="matrix(0.9999046325683594,0.013868751004338264,-0.013868751004338264,0.9999046325683594,694.9539794921875,539.576416015625)" opacity="1"><g opacity="1" transform="matrix(1,0,0,1,0,0)"><path fill="rgb(255,87,34)" fill-opacity="1" d=" M28,-364 C28,-364 -277,-253 -277,-253"></path><path stroke="url(#__lottie_element_10)" stroke-linecap="butt" stroke-linejoin="miter" fill-opacity="0" stroke-miterlimit="4" stroke-opacity="1" stroke-width="6" d=" M28,-364 C28,-364 -277,-253 -277,-253"></path></g></g><g style="display: block;" transform="matrix(0.9998520016670227,-0.017254671081900597,0.017254671081900597,0.9998520016670227,706.3182373046875,540.3253784179688)" opacity="1"><g opacity="1" transform="matrix(1,0,0,1,0,0)"><path fill="rgb(255,87,34)" fill-opacity="1" d=" M24,-366 C24,-366 20,-44 20,-44"></path><path stroke="url(#__lottie_element_23)" stroke-linecap="butt" stroke-linejoin="miter" fill-opacity="0" stroke-miterlimit="4" stroke-opacity="1" stroke-width="6" d=" M24,-366 C24,-366 20,-44 20,-44"></path></g></g><g style="display: block;" transform="matrix(0.9999890923500061,-0.004851406905800104,0.004851406905800104,0.9999890923500061,701.7562255859375,540.1024169921875)" opacity="1"><g opacity="1" transform="matrix(1,0,0,1,0,0)"><path fill="rgb(255,87,34)" fill-opacity="1" d=" M22,-362 C22,-362 316,-251 316,-251"></path><path stroke-linecap="butt" stroke-linejoin="miter" fill-opacity="0" stroke-miterlimit="4" stroke="rgb(80,52,252)" stroke-opacity="1" stroke-width="6" d=" M22,-362 C22,-362 316,-251 316,-251"></path></g></g><g style="display: block;" transform="matrix(0.999864399433136,-0.01657961681485176,0.01657961681485176,0.999864399433136,702.646484375,531.1322021484375)" opacity="1"><g opacity="1" transform="matrix(1,0,0,1,0,0)"><path fill="rgb(255,87,34)" fill-opacity="1" d=" M-277,-253 C-277,-253 -484,-404 -484,-404"></path><path stroke-linecap="butt" stroke-linejoin="miter" fill-opacity="0" stroke-miterlimit="4" stroke="rgb(250,214,73)" stroke-opacity="1" stroke-width="6" d=" M-277,-253 C-277,-253 -484,-404 -484,-404"></path></g></g><g style="display: block;" transform="matrix(0.999410092830658,-0.034396085888147354,0.034396085888147354,0.999410092830658,707.0281982421875,526.0820922851562)" opacity="1"><g opacity="1" transform="matrix(1,0,0,1,0,0)"><path fill="rgb(255,87,34)" fill-opacity="1" d=" M-277,-253 C-277,-253 -554,-151 -554,-151"></path><path stroke="url(#__lottie_element_43)" stroke-linecap="butt" stroke-linejoin="miter" fill-opacity="0" stroke-miterlimit="4" stroke-opacity="1" stroke-width="6" d=" M-277,-253 C-277,-253 -554,-151 -554,-151"></path></g></g><g style="display: block;" transform="matrix(0.9990409016609192,0.04382918402552605,-0.04382918402552605,0.9990409016609192,687.1030883789062,547.716064453125)" opacity="1"><g opacity="1" transform="matrix(1,0,0,1,0,0)"><path fill="rgb(255,87,34)" fill-opacity="1" d=" M-279,-254 C-279,-254 -339,5 -339,5"></path><path stroke="url(#__lottie_element_30)" stroke-linecap="butt" stroke-linejoin="miter" fill-opacity="0" stroke-miterlimit="4" stroke-opacity="1" stroke-width="6" d=" M-279,-254 C-279,-254 -339,5 -339,5"></path></g></g><g style="display: block;" transform="matrix(1.0000016689300537,0.00012495851842686534,-0.00012495851842686534,1.0000016689300537,705.463134765625,539.9500122070312)" opacity="1"><g opacity="1" transform="matrix(1,0,0,1,0,0)"><path fill="rgb(255,87,34)" fill-opacity="1" d=" M22,-49 C22,-49 -204,122 -204,122"></path><path stroke="url(#__lottie_element_70)" stroke-linecap="butt" stroke-linejoin="miter" fill-opacity="0" stroke-miterlimit="4" stroke-opacity="1" stroke-width="6" d=" M22,-49 C22,-49 -204,122 -204,122"></path></g></g><g style="display: block;" transform="matrix(0.999718964099884,-0.02378026582300663,0.02378026582300663,0.999718964099884,706.6531372070312,540.4427490234375)" opacity="1"><g opacity="1" transform="matrix(1,0,0,1,0,0)"><path fill="rgb(255,87,34)" fill-opacity="1" d=" M20,-51 C20,-51 18,276 18,276"></path><path stroke="url(#__lottie_element_83)" stroke-linecap="butt" stroke-linejoin="miter" fill-opacity="0" stroke-miterlimit="4" stroke-opacity="1" stroke-width="6" d=" M20,-51 C20,-51 18,276 18,276"></path></g></g><g style="display: block;" transform="matrix(0.9984854459762573,-0.05504874885082245,0.05504874885082245,0.9984854459762573,708.1185913085938,540.9412231445312)" opacity="1"><g opacity="1" transform="matrix(1,0,0,1,0,0)"><path fill="rgb(255,87,34)" fill-opacity="1" d=" M18,-47 C18,-47 302,211 302,211"></path><path stroke-linecap="butt" stroke-linejoin="miter" fill-opacity="0" stroke-miterlimit="4" stroke="rgb(250,214,73)" stroke-opacity="1" stroke-width="6" d=" M18,-47 C18,-47 302,211 302,211"></path></g></g><g style="display: block;" transform="matrix(0.9999784827232361,0.006839240435510874,-0.006839240435510874,0.9999784827232361,698.7900390625,536.3821411132812)" opacity="1"><g opacity="1" transform="matrix(1,0,0,1,0,0)"><path fill="rgb(255,87,34)" fill-opacity="1" d=" M318,-254 C318,-254 524,-411 524,-411"></path><path stroke-linecap="butt" stroke-linejoin="miter" fill-opacity="0" stroke-miterlimit="4" stroke="rgb(80,52,252)" stroke-opacity="1" stroke-width="6" d=" M318,-254 C318,-254 524,-411 524,-411"></path></g></g><g style="display: block;" transform="matrix(0.9990679621696472,0.04320719465613365,-0.04320719465613365,0.9990679621696472,689.9832763671875,524.7330322265625)" opacity="1"><g opacity="1" transform="matrix(1,0,0,1,0,0)"><path fill="rgb(255,87,34)" fill-opacity="1" d=" M315,-251 C315,-251 592,-151 592,-151"></path><path stroke="url(#__lottie_element_63)" stroke-linecap="butt" stroke-linejoin="miter" fill-opacity="0" stroke-miterlimit="4" stroke-opacity="1" stroke-width="6" d=" M315,-251 C315,-251 592,-151 592,-151"></path></g></g><g style="display: block;" transform="matrix(0.9987673759460449,-0.04967322573065758,0.04967322573065758,0.9987673759460449,713.4396362304688,554.048095703125)" opacity="1"><g opacity="1" transform="matrix(1,0,0,1,0,0)"><path fill="rgb(255,87,34)" fill-opacity="1" d=" M318,-252 C318,-252 375,16 375,16"></path><path stroke="url(#__lottie_element_50)" stroke-linecap="butt" stroke-linejoin="miter" fill-opacity="0" stroke-miterlimit="4" stroke-opacity="1" stroke-width="6" d=" M318,-252 C318,-252 375,16 375,16"></path></g></g><g style="display: block;" transform="matrix(0.9999248385429382,-0.012498048134148121,0.012498048134148121,0.9999248385429382,687.084716796875,528.9631958007812)" opacity="1"><g opacity="1" transform="matrix(1,0,0,1,0,0)"><path fill="rgb(255,87,34)" fill-opacity="1" d=" M-337,4 C-337,4 -573,7 -573,7"></path><path stroke="url(#__lottie_element_90)" stroke-linecap="butt" stroke-linejoin="miter" fill-opacity="0" stroke-miterlimit="4" stroke-opacity="1" stroke-width="6" d=" M-337,4 C-337,4 -573,7 -573,7"></path></g></g><g style="display: block;" transform="matrix(0.9981514811515808,-0.06082361564040184,0.06082361564040184,0.9981514811515808,686.5844116210938,512.5801391601562)" opacity="1"><g opacity="1" transform="matrix(1,0,0,1,0,0)"><path fill="rgb(255,87,34)" fill-opacity="1" d=" M-338,2 C-338,2 -516,215 -516,215"></path><path stroke="url(#__lottie_element_103)" stroke-linecap="butt" stroke-linejoin="miter" fill-opacity="0" stroke-miterlimit="4" stroke-opacity="1" stroke-width="6" d=" M-338,2 C-338,2 -516,215 -516,215"></path></g></g><g style="display: block;" transform="matrix(0.9937522411346436,0.11163482069969177,-0.11163482069969177,0.9937522411346436,685.642578125,570.9646606445312)" opacity="1"><g opacity="1" transform="matrix(1,0,0,1,0,0)"><path fill="rgb(255,87,34)" fill-opacity="1" d=" M-339,5 C-339,5 -312,239 -312,239"></path><path stroke-linecap="butt" stroke-linejoin="miter" fill-opacity="0" stroke-miterlimit="4" stroke="rgb(250,214,73)" stroke-opacity="1" stroke-width="6" d=" M-339,5 C-339,5 -312,239 -312,239"></path></g></g><g style="display: block;" transform="matrix(0.9938012361526489,-0.11118779331445694,0.11118779331445694,0.9938012361526489,697.636474609375,558.9443969726562)" opacity="1"><g opacity="1" transform="matrix(1,0,0,1,0,0)"><path fill="rgb(255,87,34)" fill-opacity="1" d=" M303,212 C303,212 260,432 260,432"></path><path stroke="url(#__lottie_element_110)" stroke-linecap="butt" stroke-linejoin="miter" fill-opacity="0" stroke-miterlimit="4" stroke-opacity="1" stroke-width="6" d=" M303,212 C303,212 260,432 260,432"></path></g></g><g style="display: block;" transform="matrix(0.999075174331665,-0.04303869977593422,0.04303869977593422,0.999075174331665,710.4631958007812,537.2023315429688)" opacity="1"><g opacity="1" transform="matrix(1,0,0,1,0,0)"><path fill="rgb(255,87,34)" fill-opacity="1" d=" M301,210 C301,210 474,392 474,392"></path><path stroke="url(#__lottie_element_123)" stroke-linecap="butt" stroke-linejoin="miter" fill-opacity="0" stroke-miterlimit="4" stroke-opacity="1" stroke-width="6" d=" M301,210 C301,210 474,392 474,392"></path></g></g><g style="display: block;" transform="matrix(0.9998489618301392,-0.017476484179496765,0.017476484179496765,0.9998489618301392,715.6693725585938,529.2301635742188)" opacity="1"><g opacity="1" transform="matrix(1,0,0,1,0,0)"><path fill="rgb(255,87,34)" fill-opacity="1" d=" M304,212 C304,212 522,197 522,197"></path><path stroke-linecap="butt" stroke-linejoin="miter" fill-opacity="0" stroke-miterlimit="4" stroke="rgb(250,214,73)" stroke-opacity="1" stroke-width="6" d=" M304,212 C304,212 522,197 522,197"></path></g></g><g style="display: block;" transform="matrix(0.7193341851234436,-0.03098786436021328,0.03098786436021328,0.7193341851234436,714.1725463867188,529.6804809570312)" opacity="1"><g opacity="1" transform="matrix(1,0,0,1,0,0)"><path fill="rgb(255,87,34)" fill-opacity="1" d=" M598.7650146484375,499.29901123046875 C570.3720092773438,526.8259887695312 569.6669921875,572.3209838867188 597.1939697265625,600.7150268554688 C624.7210083007812,629.1079711914062 670.2169799804688,629.81298828125 698.6099853515625,602.2860107421875 C727.0040283203125,574.7579956054688 727.708984375,529.2620239257812 700.1820068359375,500.8689880371094 C672.655029296875,472.4750061035156 627.1589965820312,471.77099609375 598.7650146484375,499.29901123046875z"></path></g></g><g style="display: block;" transform="matrix(0.7198913097381592,-0.012583069503307343,0.012583069503307343,0.7198913097381592,719.5706176757812,521.8057250976562)" opacity="1"><g opacity="1" transform="matrix(1,0,0,1,0,0)"><path fill="rgb(250,214,73)" fill-opacity="1" d=" M660.4320068359375,228.5279998779297 C632.0390014648438,256.05499267578125 631.333984375,301.54998779296875 658.8610229492188,329.9440002441406 C686.3880004882812,358.3370056152344 731.8839721679688,359.0419921875 760.2769775390625,331.5150146484375 C788.6710205078125,303.98699951171875 789.3759765625,258.4909973144531 761.8489990234375,230.09800720214844 C734.322021484375,201.70399475097656 688.8259887695312,201 660.4320068359375,228.5279998779297z"></path></g></g><g style="display: block;" transform="matrix(0.715536892414093,-0.08005522191524506,0.08005522191524506,0.715536892414093,700.8240966796875,551.18701171875)" opacity="1"><g opacity="1" transform="matrix(1,0,0,1,0,0)"><path fill="rgb(80,52,252)" fill-opacity="1" d=" M294.09698486328125,564.0700073242188 C273.96600341796875,598.1099853515625 285.281005859375,642.1820068359375 319.3210144042969,662.31298828125 C353.3599853515625,682.4429931640625 397.4320068359375,671.1270141601562 417.56298828125,637.0869750976562 C437.6940002441406,603.0469970703125 426.37799072265625,558.9749755859375 392.3389892578125,538.844970703125 C358.29901123046875,518.7139892578125 314.2279968261719,530.030029296875 294.09698486328125,564.0700073242188z"></path></g></g><g style="display: block;" transform="matrix(0.7186689972877502,-0.043793004006147385,0.043793004006147385,0.7186689972877502,690.1597290039062,504.9932861328125)" opacity="1"><g opacity="1" transform="matrix(1,0,0,1,0,0)"><path fill="rgb(255,87,34)" fill-opacity="1" d=" M-670.489990234375,246.16600036621094 C-701.4219970703125,221.52499389648438 -746.635009765625,226.64300537109375 -771.2760009765625,257.57501220703125 C-795.916015625,288.5060119628906 -790.7979736328125,333.7179870605469 -759.8660278320312,358.3590087890625 C-728.9340209960938,383 -683.7210083007812,377.8819885253906 -659.0809936523438,346.95098876953125 C-634.4400024414062,316.0190124511719 -639.5579833984375,270.8070068359375 -670.489990234375,246.16600036621094z"></path></g></g><g style="display: block;" transform="matrix(0.7155016660690308,0.08037707954645157,-0.08037707954645157,0.7155016660690308,690.4688110351562,564.1060180664062)" opacity="1"><g opacity="1" transform="matrix(1,0,0,1,0,0)"><path fill="rgb(250,214,73)" fill-opacity="1" d=" M-394.0570068359375,272.7049865722656 C-424.989013671875,248.06399536132812 -470.20098876953125,253.1820068359375 -494.8420104980469,284.114013671875 C-519.4819946289062,315.0450134277344 -514.364990234375,360.25799560546875 -483.4330139160156,384.89898681640625 C-452.5010070800781,409.5400085449219 -407.2879943847656,404.4219970703125 -382.64801025390625,373.4909973144531 C-358.0069885253906,342.5589904785156 -363.125,297.34600830078125 -394.0570068359375,272.7049865722656z"></path></g></g><g style="display: block;" transform="matrix(0.719946026802063,-0.008998596109449863,0.008998596109449863,0.719946026802063,691.0222778320312,521.55908203125)" opacity="1"><g opacity="1" transform="matrix(1,0,0,1,0,0)"><path fill="rgb(80,52,252)" fill-opacity="1" d=" M-773.6859741210938,-47.720001220703125 C-810.02001953125,-63.33300018310547 -852.2839965820312,-46.474998474121094 -867.89697265625,-10.140999794006348 C-883.510009765625,26.191999435424805 -866.6510009765625,68.45600128173828 -830.3170166015625,84.06900024414062 C-793.9819946289062,99.68199920654297 -751.718994140625,82.8239974975586 -736.1060180664062,46.49100112915039 C-720.4929809570312,10.156999588012695 -737.3510131835938,-32.106998443603516 -773.6859741210938,-47.720001220703125z"></path></g></g><g style="display: block;" transform="matrix(0.7197977304458618,-0.01712179183959961,0.01712179183959961,0.7197977304458618,710.5072021484375,532.9948120117188)" opacity="1"><g opacity="1" transform="matrix(1,0,0,1,0,0)"><path fill="rgb(255,87,34)" fill-opacity="1" d=" M15.310999870300293,295.1059875488281 C-33.426998138427734,295.1059875488281 -73.08100128173828,334.75799560546875 -73.08100128173828,383.49700927734375 C-73.08100128173828,432.2349853515625 -33.426998138427734,471.8869934082031 15.310999870300293,471.8869934082031 C64.05000305175781,471.8869934082031 103.7030029296875,432.2349853515625 103.7030029296875,383.49700927734375 C103.7030029296875,334.75799560546875 64.05000305175781,295.1059875488281 15.310999870300293,295.1059875488281z"></path></g></g><g style="display: block;" transform="matrix(0.7189096808433533,-0.039635106921195984,0.039635106921195984,0.7189096808433533,711.7384033203125,533.3758544921875)" opacity="1"><g opacity="1" transform="matrix(1,0,0,1,0,0)"><path fill="rgb(250,214,73)" fill-opacity="1" d=" M412.0350036621094,218.2899932861328 C363.2969970703125,218.2899932861328 323.6440124511719,257.9419860839844 323.6440124511719,306.6809997558594 C323.6440124511719,355.41900634765625 363.2969970703125,395.0710144042969 412.0350036621094,395.0710144042969 C460.77398681640625,395.0710144042969 500.427001953125,355.41900634765625 500.427001953125,306.6809997558594 C500.427001953125,257.9419860839844 460.77398681640625,218.2899932861328 412.0350036621094,218.2899932861328z"></path></g></g><g style="display: block;" transform="matrix(0.7200013399124146,0.00008997101394925267,-0.00008997101394925267,0.7200013399124146,709.4942626953125,532.5960693359375)" opacity="1"><g opacity="1" transform="matrix(1,0,0,1,0,0)"><path fill="rgb(80,52,252)" fill-opacity="1" d=" M-309.84100341796875,91.05699920654297 C-356.8550109863281,103.90799713134766 -384.6499938964844,152.61199951171875 -371.79901123046875,199.62600708007812 C-358.9490051269531,246.63900756835938 -310.2439880371094,274.4339904785156 -263.2300109863281,261.5830078125 C-216.21499633789062,248.73199462890625 -188.42100524902344,200.02699279785156 -201.27099609375,153.01400756835938 C-214.1219940185547,106 -262.82598876953125,78.20600128173828 -309.84100341796875,91.05699920654297z"></path></g></g><g style="display: block;" transform="matrix(0.7193289399147034,0.03110918216407299,-0.03110918216407299,0.7193289399147034,694.3277587890625,517.5599365234375)" opacity="1"><g opacity="1" transform="matrix(1,0,0,1,0,0)"><path fill="rgb(250,214,73)" fill-opacity="1" d=" M718.8170166015625,-227.4669952392578 C702.14697265625,-181.66799926757812 725.8460083007812,-130.84500122070312 771.64599609375,-114.17500305175781 C817.4439697265625,-97.50599670410156 868.2670288085938,-121.20500183105469 884.93701171875,-167.00399780273438 C901.6069946289062,-212.8040008544922 877.906982421875,-263.62701416015625 832.1090087890625,-280.2959899902344 C786.3090209960938,-296.96600341796875 735.4869995117188,-273.2669982910156 718.8170166015625,-227.4669952392578z"></path></g></g><g style="display: block;" transform="matrix(0.7199845910072327,0.0049242544919252396,-0.0049242544919252396,0.7199845910072327,702.8699951171875,529.0556030273438)" opacity="1"><g opacity="1" transform="matrix(1,0,0,1,0,0)"><path fill="rgb(80,52,252)" fill-opacity="1" d=" M629.25,-587.125 C612.5800170898438,-541.3259887695312 636.2780151367188,-490.50299072265625 682.0780029296875,-473.8330078125 C727.8759765625,-457.16400146484375 778.7000122070312,-480.8630065917969 795.3699951171875,-526.6619873046875 C812.0399780273438,-572.4619750976562 788.3400268554688,-623.2860107421875 742.5419921875,-639.9550170898438 C696.7420043945312,-656.625 645.9199829101562,-632.9249877929688 629.25,-587.125z"></path></g></g><g style="display: block;" transform="matrix(0.7191125154495239,-0.03576472029089928,0.03576472029089928,0.7191125154495239,717.0995483398438,546.5016479492188)" opacity="1"><g opacity="1" transform="matrix(1,0,0,1,0,0)"><path fill="rgb(255,87,34)" fill-opacity="1" d=" M415.8659973144531,8.286999702453613 C411.86199951171875,56.861000061035156 448.12298583984375,99.63700103759766 496.6969909667969,103.64099884033203 C545.27001953125,107.6449966430664 588.0460205078125,71.38400268554688 592.0499877929688,22.809999465942383 C596.0540161132812,-25.764999389648438 559.7930297851562,-68.54000091552734 511.2200012207031,-72.54399871826172 C462.64599609375,-76.5479965209961 419.8699951171875,-40.28799819946289 415.8659973144531,8.286999702453613z"></path></g></g><g style="display: block;" transform="matrix(0.7200000286102295,0,0,0.7200000286102295,704.030029296875,532.6449584960938)" opacity="1"><g opacity="1" transform="matrix(1,0,0,1,0,0)"><path fill="rgb(80,52,252)" fill-opacity="1" d=" M18.051000595092773,-350.4460144042969 C96.56900024414062,-350.4460144042969 160.44900512695312,-414.32598876953125 160.44900512695312,-492.8429870605469 C160.44900512695312,-571.3610229492188 96.56900024414062,-635.239990234375 18.051000595092773,-635.239990234375 C-60.46699905395508,-635.239990234375 -124.3489990234375,-571.3610229492188 -124.3489990234375,-492.8429870605469 C-124.3489990234375,-414.32598876953125 -60.46699905395508,-350.4460144042969 18.051000595092773,-350.4460144042969z"></path></g></g><g style="display: block;" transform="matrix(0.7195754051208496,-0.02476518787443638,0.02476518787443638,0.7195754051208496,710.8038330078125,518.59375)" opacity="1"><g opacity="1" transform="matrix(1,0,0,1,0,0)"><path fill="rgb(80,52,252)" fill-opacity="1" d=" M-690.030029296875,-227.4669952392578 C-673.3599853515625,-181.66799926757812 -697.0590209960938,-130.84500122070312 -742.8590087890625,-114.17500305175781 C-788.656982421875,-97.50599670410156 -839.47998046875,-121.20500183105469 -856.1500244140625,-167.00399780273438 C-872.8200073242188,-212.8040008544922 -849.1199951171875,-263.62701416015625 -803.322021484375,-280.2959899902344 C-757.52197265625,-296.96600341796875 -706.7000122070312,-273.2669982910156 -690.030029296875,-227.4669952392578z"></path></g></g><g style="display: block;" transform="matrix(0.7199023962020874,-0.011937325820326805,0.011937325820326805,0.7199023962020874,706.5538940429688,523.7120971679688)" opacity="1"><g opacity="1" transform="matrix(1,0,0,1,0,0)"><path fill="rgb(255,87,34)" fill-opacity="1" d=" M-600.4619750976562,-587.125 C-583.7919921875,-541.3259887695312 -607.4910278320312,-490.50299072265625 -653.291015625,-473.8330078125 C-699.0889892578125,-457.16400146484375 -749.9119873046875,-480.8630065917969 -766.5819702148438,-526.6619873046875 C-783.2520141601562,-572.4619750976562 -759.552978515625,-623.2860107421875 -713.7550048828125,-639.9550170898438 C-667.9550170898438,-656.625 -617.1320190429688,-632.9249877929688 -600.4619750976562,-587.125z"></path></g></g><g style="display: block;" transform="matrix(0.7193096280097961,0.03155701979994774,-0.03155701979994774,0.7193096280097961,691.4520874023438,540.5444946289062)" opacity="1"><g opacity="1" transform="matrix(1,0,0,1,0,0)"><path fill="rgb(250,214,73)" fill-opacity="1" d=" M-387.0790100097656,8.286999702453613 C-383.07501220703125,56.861000061035156 -419.3349914550781,99.63700103759766 -467.90899658203125,103.64099884033203 C-516.4819946289062,107.6449966430664 -559.2579956054688,71.38400268554688 -563.2620239257812,22.809999465942383 C-567.2659912109375,-25.764999389648438 -531.0050048828125,-68.54000091552734 -482.4320068359375,-72.54399871826172 C-433.8580017089844,-76.5479965209961 -391.0830078125,-40.28799819946289 -387.0790100097656,8.286999702453613z"></path></g></g><g style="display: block;" transform="matrix(0.7198934555053711,-0.012423363514244556,0.012423363514244556,0.7198934555053711,710.2207641601562,532.9020385742188)" opacity="1"><g opacity="1" transform="matrix(1,0,0,1,0,0)"><path fill="rgb(250,214,73)" fill-opacity="1" d=" M18.049999237060547,-173.42100524902344 C-48.104000091552734,-173.42100524902344 -101.9260025024414,-119.5999984741211 -101.9260025024414,-53.44499969482422 C-101.9260025024414,12.708000183105469 -48.104000091552734,66.52999877929688 18.049999237060547,66.52999877929688 C84.20500183105469,66.52999877929688 138.02699279785156,12.708000183105469 138.02699279785156,-53.44499969482422 C138.02699279785156,-119.5999984741211 84.20500183105469,-173.42100524902344 18.049999237060547,-173.42100524902344z"></path></g></g><g style="display: block;" transform="matrix(0.7199922800064087,-0.003493013558909297,0.003493013558909297,0.7199922800064087,705.7506103515625,532.7283935546875)" opacity="1"><g opacity="1" transform="matrix(1,0,0,1,0,0)"><path fill="rgb(80,52,252)" fill-opacity="1" d=" M435.2040100097656,-454.62701416015625 C369.04998779296875,-454.62701416015625 315.22698974609375,-400.8059997558594 315.22698974609375,-334.6510009765625 C315.22698974609375,-268.49798583984375 369.04998779296875,-214.677001953125 435.2040100097656,-214.677001953125 C501.3590087890625,-214.677001953125 555.1810302734375,-268.49798583984375 555.1810302734375,-334.6510009765625 C555.1810302734375,-400.8059997558594 501.3590087890625,-454.62701416015625 435.2040100097656,-454.62701416015625z"></path></g></g><g style="display: block;" transform="matrix(0.7199314832687378,0.009985502809286118,-0.009985502809286118,0.7199314832687378,699.0863037109375,532.2785034179688)" opacity="1"><g opacity="1" transform="matrix(1,0,0,1,0,0)"><path fill="rgb(255,87,34)" fill-opacity="1" d=" M-423.2879943847656,-450.3819885253906 C-487.10101318359375,-432.9389953613281 -524.8289794921875,-366.8320007324219 -507.385986328125,-303.01800537109375 C-489.9440002441406,-239.20599365234375 -423.8349914550781,-201.47900390625 -360.0220031738281,-218.9219970703125 C-296.2080078125,-236.36500549316406 -258.4809875488281,-302.4729919433594 -275.9230041503906,-366.2850036621094 C-293.3659973144531,-430.0989990234375 -359.4739990234375,-467.82501220703125 -423.2879943847656,-450.3819885253906z"></path></g></g></g></svg>